<svg width="346" height="165" viewBox="0 0 346 165" fill="none" xmlns="http://www.w3.org/2000/svg">
<path d="M50.7812 48.8125C39.5625 48.8125 32.4688 43.8438 31.9688 35.2188L31.9375 34.6562H42.5938L42.6562 35C43.2188 37.9062 46.5938 39.8125 51 39.8125C55.5625 39.8125 58.375 37.875 58.375 35.0625V35.0312C58.375 32.4688 56.375 31.2812 51.0938 30.25L46.4688 29.375C37.5312 27.7188 32.8125 23.3125 32.8125 16.4062V16.375C32.8125 7.6875 40.3438 2.09375 50.6875 2.09375C62 2.09375 68.4062 7.40625 68.8125 15.5938L68.8438 16.25H58.1875L58.1562 15.9062C57.8125 12.9375 54.9062 11.0938 50.7812 11.0938C46.5625 11.0938 44.1875 13 44.1875 15.5938V15.625C44.1875 18.0625 46.3125 19.3438 51.1562 20.25L55.7812 21.125C65.3438 22.9688 69.7812 26.8438 69.7812 34.0625V34.0938C69.7812 43.0938 62.7188 48.8125 50.7812 48.8125ZM74.7537 48V2.90625H84.4725L102.504 28.9375H102.722V2.90625H114.16V48H104.535L86.41 21.6875H86.1912V48H74.7537ZM130.32 48L118.539 2.90625H130.382L136.507 32.7188H136.726L144.039 2.90625H153.664L160.976 32.7188H161.195L167.32 2.90625H179.164L167.382 48H156.101L148.945 20.9375H148.726L141.601 48H130.32ZM202.98 48.8125C189.074 48.8125 180.699 40.2188 180.699 25.375V25.3438C180.699 10.7188 189.105 2.09375 202.699 2.09375C213.761 2.09375 221.73 8.59375 222.917 17.3438L222.98 17.7188H211.636L211.542 17.4062C210.355 13.75 207.136 11.5938 202.73 11.5938C196.23 11.5938 192.386 16.4688 192.386 25.2188V25.25C192.386 34.1875 196.636 39.3125 203.23 39.3125C208.417 39.3125 211.98 36.5 212.355 31.9688L212.386 31.4062H203.355V23.2812H223.449V28.9375C223.449 41.2812 215.824 48.8125 202.98 48.8125ZM30.9062 105L46.0938 59.9062H60.125L75.3125 105H63.2812L60.4688 95.0938H45.75L42.9375 105H30.9062ZM53 69.7188L48.125 86.8438H58.0938L53.2188 69.7188H53ZM84.1912 67.3125C81.0037 67.3125 78.535 64.8125 78.535 61.8438C78.535 58.875 81.0037 56.4062 84.1912 56.4062C87.41 56.4062 89.8475 58.875 89.8475 61.8438C89.8475 64.8125 87.41 67.3125 84.1912 67.3125ZM78.66 105V70.9688H89.7225V105H78.66ZM94.7887 105V70.9688H105.882V77H106.101C107.039 72.6875 109.726 70.25 113.726 70.25C114.789 70.25 115.757 70.4062 116.601 70.6875V80.1562C115.664 79.7812 114.382 79.5312 113.07 79.5312C108.414 79.5312 105.882 82.0938 105.882 86.9375V105H94.7887ZM153.484 105.812C139.796 105.812 131.234 96.8438 131.234 82.4688V82.4062C131.234 68.0625 139.859 59.0938 153.484 59.0938C167.202 59.0938 175.765 68.0625 175.765 82.4062V82.4688C175.765 90.2188 173.265 96.4375 168.796 100.469L174.64 108.781H164.265L161.359 104.656C158.984 105.406 156.359 105.812 153.484 105.812ZM153.484 96.3125C154.171 96.3125 154.796 96.25 155.421 96.1562L149.859 88.1875H160.234L162.234 91.0625C163.421 88.8125 164.109 85.875 164.109 82.4688V82.4062C164.109 73.875 159.952 68.5938 153.484 68.5938C147.077 68.5938 142.921 73.8438 142.921 82.4062V82.4688C142.921 91.0312 147.046 96.3125 153.484 96.3125ZM191.831 105.719C184.363 105.719 180.113 100.938 180.113 92.875V70.9688H191.206V90.5C191.206 94.4062 193.019 96.7188 196.675 96.7188C200.175 96.7188 202.394 94.0625 202.394 90.2812V70.9688H213.456V105H202.394V99H202.175C200.456 103.281 196.988 105.719 191.831 105.719ZM228.71 105.469C221.866 105.469 217.21 101.125 217.21 95.1875V95.1562C217.21 88.75 222.148 85.1562 230.929 84.5625L238.679 84.0625V82.375C238.679 79.9062 237.085 78.375 233.991 78.375C231.023 78.375 229.273 79.75 228.898 81.5L228.835 81.8125H218.866L218.898 81.4062C219.429 74.7812 225.085 70.25 234.554 70.25C243.71 70.25 249.741 74.875 249.741 81.7812V105H238.679V100.188H238.46C236.523 103.531 233.148 105.469 228.71 105.469ZM228.085 94.4688C228.085 96.5938 229.866 97.8125 232.585 97.8125C236.148 97.8125 238.679 95.6875 238.679 92.8125V90.5312L232.71 90.9375C229.616 91.125 228.085 92.4062 228.085 94.4375V94.4688ZM254.901 105V59.9062H265.995V105H254.901ZM276.811 67.3125C273.624 67.3125 271.155 64.8125 271.155 61.8438C271.155 58.875 273.624 56.4062 276.811 56.4062C280.03 56.4062 282.467 58.875 282.467 61.8438C282.467 64.8125 280.03 67.3125 276.811 67.3125ZM271.28 105V70.9688H282.342V105H271.28ZM302.19 105.719C293.94 105.719 290.19 102.75 290.19 95.0625V79.0938H285.565V70.9688H290.19V63.125H301.284V70.9688H307.378V79.0938H301.284V93.5625C301.284 96.5 302.596 97.5938 305.315 97.5938C306.19 97.5938 306.753 97.5312 307.378 97.4375V105.312C306.159 105.531 304.503 105.719 302.19 105.719ZM318.006 116.094C315.819 116.094 313.694 115.844 312.444 115.625V107.594C313.163 107.75 314.475 107.938 316.194 107.938C318.538 107.938 319.819 107.219 320.381 105.719L320.631 105L308.913 70.9688H321.163L327.256 96.6875H327.538L333.6 70.9688H345.288L334.444 104.844C331.663 113.656 326.288 116.094 318.006 116.094ZM34 162V116.906H60.125V119.188H36.4688V138.031H58.25V140.281H36.4688V162H34ZM76.2225 162.531C67.5662 162.5 61.7537 156.062 61.7537 145.75V145.688C61.7537 135.406 67.5975 128.969 76.2225 128.969C84.8162 128.969 90.7225 135.375 90.7225 145.688V145.75C90.7225 156.094 84.8475 162.531 76.2225 162.531ZM76.2225 160.344C83.4412 160.344 88.285 154.75 88.285 145.75V145.688C88.285 136.688 83.41 131.156 76.2225 131.156C69.0037 131.156 64.1912 136.719 64.1912 145.688V145.75C64.1912 154.75 69.0037 160.312 76.2225 160.344ZM95.9762 162V129.5H98.4137V135.781H98.4762C99.7575 131.5 102.726 128.969 107.039 128.969C108.32 128.969 109.476 129.25 110.07 129.5V131.938C109.382 131.594 108.226 131.281 106.695 131.281C101.57 131.281 98.4137 135.594 98.4137 141.781V162H95.9762ZM124.824 162.531C116.011 162.531 110.324 156.188 110.324 145.781V145.75C110.324 135.406 116.043 128.969 124.48 128.969C132.886 128.969 138.511 135.281 138.511 145.031V146.156H112.761C112.886 155.281 117.668 160.344 124.855 160.344C130.511 160.344 134.386 157.469 135.574 152.938L135.668 152.688H138.105L138.043 152.969C136.761 158.781 131.761 162.531 124.824 162.531ZM124.449 131.156C117.855 131.156 113.074 136.156 112.761 144.125H136.105C135.793 136.062 131.074 131.156 124.449 131.156ZM156.484 162.531C147.702 162.531 142.109 156.031 142.109 145.75V145.719C142.109 135.469 147.765 128.969 156.484 128.969C163.359 128.969 168.39 133.25 169.39 138.875L169.452 139.188H167.046L166.984 138.906C165.952 134.375 161.952 131.156 156.484 131.156C149.202 131.156 144.546 136.812 144.546 145.719V145.75C144.546 154.781 149.265 160.344 156.484 160.344C161.859 160.344 165.89 157.219 166.952 152.594L167.015 152.312H169.421L169.39 152.594C168.296 158.469 163.265 162.531 156.484 162.531ZM184.238 162.531C177.894 162.531 173.488 158.75 173.488 153.25V153.188C173.488 147.656 177.519 144.469 184.988 143.906L196.175 143.125V140.219C196.175 134.562 192.769 131.156 187.019 131.156C181.55 131.156 177.863 133.812 177.05 138.531L176.988 138.875H174.644L174.706 138.5C175.488 132.562 180.081 128.969 187.019 128.969C194.175 128.969 198.613 133.219 198.613 140.031V162H196.175V155.156H196.113C194.488 159.531 189.675 162.531 184.238 162.531ZM175.956 153.25C175.956 157.438 179.55 160.344 184.581 160.344C190.988 160.344 196.175 155.75 196.175 149.938V145.125L185.331 145.906C179.269 146.375 175.956 148.906 175.956 153.188V153.25ZM215.929 162.531C208.929 162.531 204.085 158.562 203.46 152.906L203.429 152.625H205.835L205.898 152.906C206.523 157.312 210.398 160.406 215.898 160.406C221.491 160.406 225.304 157.625 225.304 153.594V153.562C225.304 150.094 223.273 148.312 218.054 147.094L213.523 146.031C207.335 144.594 204.491 142.062 204.491 137.812V137.781C204.491 132.625 209.116 128.969 215.554 128.969C222.21 128.969 226.554 132.812 227.21 138.594L227.241 138.875H224.898L224.866 138.656C224.241 134.094 220.741 131.094 215.554 131.094C210.491 131.094 206.929 133.875 206.929 137.75V137.781C206.929 140.875 209.023 142.688 214.241 143.906L218.773 144.969C225.148 146.469 227.773 148.938 227.773 153.438V153.469C227.773 158.812 222.835 162.531 215.929 162.531ZM241.401 162.531C236.839 162.531 234.62 160.219 234.62 155.219V131.625H229.807V129.5H234.62V120.719H237.12V129.5H243.807V131.625H237.12V155.094C237.12 158.875 238.62 160.406 241.839 160.406C242.651 160.406 243.37 160.344 243.807 160.25V162.281C243.245 162.438 242.339 162.531 241.401 162.531ZM259.936 162.531C252.936 162.531 248.092 158.562 247.467 152.906L247.436 152.625H249.842L249.905 152.906C250.53 157.312 254.405 160.406 259.905 160.406C265.499 160.406 269.311 157.625 269.311 153.594V153.562C269.311 150.094 267.28 148.312 262.061 147.094L257.53 146.031C251.342 144.594 248.499 142.062 248.499 137.812V137.781C248.499 132.625 253.124 128.969 259.561 128.969C266.217 128.969 270.561 132.812 271.217 138.594L271.249 138.875H268.905L268.874 138.656C268.249 134.094 264.749 131.094 259.561 131.094C254.499 131.094 250.936 133.875 250.936 137.75V137.781C250.936 140.875 253.03 142.688 258.249 143.906L262.78 144.969C269.155 146.469 271.78 148.938 271.78 153.438V153.469C271.78 158.812 266.842 162.531 259.936 162.531Z" fill="#043692"/>
<rect width="14" height="165" fill="#043692"/>
</svg>
