<svg width="346" height="165" viewBox="0 0 346 165" fill="none" xmlns="http://www.w3.org/2000/svg">
<path d="M50.7812 48.8125C39.5625 48.8125 32.4688 43.8438 31.9688 35.2188L31.9375 34.6562H42.5938L42.6562 35C43.2188 37.9062 46.5938 39.8125 51 39.8125C55.5625 39.8125 58.375 37.875 58.375 35.0625V35.0312C58.375 32.4688 56.375 31.2812 51.0938 30.25L46.4688 29.375C37.5312 27.7188 32.8125 23.3125 32.8125 16.4062V16.375C32.8125 7.6875 40.3438 2.09375 50.6875 2.09375C62 2.09375 68.4062 7.40625 68.8125 15.5938L68.8438 16.25H58.1875L58.1562 15.9062C57.8125 12.9375 54.9062 11.0938 50.7812 11.0938C46.5625 11.0938 44.1875 13 44.1875 15.5938V15.625C44.1875 18.0625 46.3125 19.3438 51.1562 20.25L55.7812 21.125C65.3438 22.9688 69.7812 26.8438 69.7812 34.0625V34.0938C69.7812 43.0938 62.7188 48.8125 50.7812 48.8125ZM74.7537 48V2.90625H84.4725L102.504 28.9375H102.722V2.90625H114.16V48H104.535L86.41 21.6875H86.1912V48H74.7537ZM130.32 48L118.539 2.90625H130.382L136.507 32.7188H136.726L144.039 2.90625H153.664L160.976 32.7188H161.195L167.32 2.90625H179.164L167.382 48H156.101L148.945 20.9375H148.726L141.601 48H130.32ZM202.98 48.8125C189.074 48.8125 180.699 40.2188 180.699 25.375V25.3438C180.699 10.7188 189.105 2.09375 202.699 2.09375C213.761 2.09375 221.73 8.59375 222.917 17.3438L222.98 17.7188H211.636L211.542 17.4062C210.355 13.75 207.136 11.5938 202.73 11.5938C196.23 11.5938 192.386 16.4688 192.386 25.2188V25.25C192.386 34.1875 196.636 39.3125 203.23 39.3125C208.417 39.3125 211.98 36.5 212.355 31.9688L212.386 31.4062H203.355V23.2812H223.449V28.9375C223.449 41.2812 215.824 48.8125 202.98 48.8125ZM30.9062 105L46.0938 59.9062H60.125L75.3125 105H63.2812L60.4688 95.0938H45.75L42.9375 105H30.9062ZM53 69.7188L48.125 86.8438H58.0938L53.2188 69.7188H53ZM84.1912 67.3125C81.0037 67.3125 78.535 64.8125 78.535 61.8438C78.535 58.875 81.0037 56.4062 84.1912 56.4062C87.41 56.4062 89.8475 58.875 89.8475 61.8438C89.8475 64.8125 87.41 67.3125 84.1912 67.3125ZM78.66 105V70.9688H89.7225V105H78.66ZM94.7887 105V70.9688H105.882V77H106.101C107.039 72.6875 109.726 70.25 113.726 70.25C114.789 70.25 115.757 70.4062 116.601 70.6875V80.1562C115.664 79.7812 114.382 79.5312 113.07 79.5312C108.414 79.5312 105.882 82.0938 105.882 86.9375V105H94.7887ZM153.484 105.812C139.796 105.812 131.234 96.8438 131.234 82.4688V82.4062C131.234 68.0625 139.859 59.0938 153.484 59.0938C167.202 59.0938 175.765 68.0625 175.765 82.4062V82.4688C175.765 90.2188 173.265 96.4375 168.796 100.469L174.64 108.781H164.265L161.359 104.656C158.984 105.406 156.359 105.812 153.484 105.812ZM153.484 96.3125C154.171 96.3125 154.796 96.25 155.421 96.1562L149.859 88.1875H160.234L162.234 91.0625C163.421 88.8125 164.109 85.875 164.109 82.4688V82.4062C164.109 73.875 159.952 68.5938 153.484 68.5938C147.077 68.5938 142.921 73.8438 142.921 82.4062V82.4688C142.921 91.0312 147.046 96.3125 153.484 96.3125ZM191.831 105.719C184.363 105.719 180.113 100.938 180.113 92.875V70.9688H191.206V90.5C191.206 94.4062 193.019 96.7188 196.675 96.7188C200.175 96.7188 202.394 94.0625 202.394 90.2812V70.9688H213.456V105H202.394V99H202.175C200.456 103.281 196.988 105.719 191.831 105.719ZM228.71 105.469C221.866 105.469 217.21 101.125 217.21 95.1875V95.1562C217.21 88.75 222.148 85.1562 230.929 84.5625L238.679 84.0625V82.375C238.679 79.9062 237.085 78.375 233.991 78.375C231.023 78.375 229.273 79.75 228.898 81.5L228.835 81.8125H218.866L218.898 81.4062C219.429 74.7812 225.085 70.25 234.554 70.25C243.71 70.25 249.741 74.875 249.741 81.7812V105H238.679V100.188H238.46C236.523 103.531 233.148 105.469 228.71 105.469ZM228.085 94.4688C228.085 96.5938 229.866 97.8125 232.585 97.8125C236.148 97.8125 238.679 95.6875 238.679 92.8125V90.5312L232.71 90.9375C229.616 91.125 228.085 92.4062 228.085 94.4375V94.4688ZM254.901 105V59.9062H265.995V105H254.901ZM276.811 67.3125C273.624 67.3125 271.155 64.8125 271.155 61.8438C271.155 58.875 273.624 56.4062 276.811 56.4062C280.03 56.4062 282.467 58.875 282.467 61.8438C282.467 64.8125 280.03 67.3125 276.811 67.3125ZM271.28 105V70.9688H282.342V105H271.28ZM302.19 105.719C293.94 105.719 290.19 102.75 290.19 95.0625V79.0938H285.565V70.9688H290.19V63.125H301.284V70.9688H307.378V79.0938H301.284V93.5625C301.284 96.5 302.596 97.5938 305.315 97.5938C306.19 97.5938 306.753 97.5312 307.378 97.4375V105.312C306.159 105.531 304.503 105.719 302.19 105.719ZM318.006 116.094C315.819 116.094 313.694 115.844 312.444 115.625V107.594C313.163 107.75 314.475 107.938 316.194 107.938C318.538 107.938 319.819 107.219 320.381 105.719L320.631 105L308.913 70.9688H321.163L327.256 96.6875H327.538L333.6 70.9688H345.288L334.444 104.844C331.663 113.656 326.288 116.094 318.006 116.094ZM33.4062 162V116.906H64.0938V126.125H44.875V136.406H62.3438V145.188H44.875V162H33.4062ZM83.6287 162.719C72.8475 162.719 66.2225 156.219 66.2225 145V144.938C66.2225 133.906 73.0662 127.25 83.6287 127.25C94.2225 127.25 101.035 133.844 101.035 144.938V145C101.035 156.25 94.3475 162.719 83.6287 162.719ZM83.66 154.312C87.4412 154.312 89.8162 150.969 89.8162 145V144.938C89.8162 139.062 87.3787 135.656 83.6287 135.656C79.8787 135.656 77.4725 139.062 77.4725 144.938V145C77.4725 151 79.8162 154.312 83.66 154.312ZM104.976 162V127.969H116.07V134H116.289C117.226 129.688 119.914 127.25 123.914 127.25C124.976 127.25 125.945 127.406 126.789 127.688V137.156C125.851 136.781 124.57 136.531 123.257 136.531C118.601 136.531 116.07 139.094 116.07 143.938V162H104.976ZM145.199 162.719C134.449 162.719 127.918 156 127.918 145V144.969C127.918 134.031 134.48 127.25 144.824 127.25C155.105 127.25 161.636 133.969 161.636 144.281V147.531H138.761C138.886 152.125 141.386 154.844 145.418 154.844C148.98 154.844 150.918 152.812 151.418 151.406L151.449 151.25H161.449L161.355 151.625C160.324 156.344 156.043 162.719 145.199 162.719ZM145.074 135.125C141.824 135.125 139.48 137.25 138.918 141H151.199C150.636 137.188 148.324 135.125 145.074 135.125ZM181.89 162.719C171.171 162.719 164.577 156 164.577 144.969V144.938C164.577 133.969 171.202 127.25 181.796 127.25C191.39 127.25 197.702 133 197.859 141.094L197.89 141.312H187.702L187.671 141C187.234 137.844 185.234 135.656 181.984 135.656C178.14 135.656 175.827 139.062 175.827 144.969V145C175.827 151 178.077 154.312 182.015 154.312C185.265 154.312 187.234 152.219 187.671 148.969L187.734 148.656H197.89V148.875C197.671 156.781 191.702 162.719 181.89 162.719ZM211.863 162.469C205.019 162.469 200.363 158.125 200.363 152.188V152.156C200.363 145.75 205.3 142.156 214.081 141.562L221.831 141.062V139.375C221.831 136.906 220.238 135.375 217.144 135.375C214.175 135.375 212.425 136.75 212.05 138.5L211.988 138.812H202.019L202.05 138.406C202.581 131.781 208.238 127.25 217.706 127.25C226.863 127.25 232.894 131.875 232.894 138.781V162H221.831V157.188H221.613C219.675 160.531 216.3 162.469 211.863 162.469ZM211.238 151.469C211.238 153.594 213.019 154.812 215.738 154.812C219.3 154.812 221.831 152.688 221.831 149.812V147.531L215.863 147.938C212.769 148.125 211.238 149.406 211.238 151.438V151.469ZM252.835 162.719C242.71 162.719 237.273 158.25 236.523 151.625L236.491 151.344H247.241L247.304 151.594C247.835 153.906 249.585 155.25 252.835 155.25C255.773 155.25 257.554 154.188 257.554 152.438V152.406C257.554 150.875 256.46 150.031 253.429 149.406L247.429 148.219C240.773 146.938 237.304 143.469 237.304 138.281V138.25C237.304 131.469 243.116 127.25 252.429 127.25C262.273 127.25 267.491 132.281 267.585 138.375L267.616 138.625H257.491L257.46 138.375C257.21 136.375 255.491 134.719 252.429 134.719C249.71 134.719 247.96 135.844 247.96 137.625V137.656C247.96 139.125 248.991 140 252.21 140.656L258.21 141.844C265.429 143.281 268.554 146.094 268.554 151.188V151.219C268.554 158.25 262.179 162.719 252.835 162.719ZM286.932 162.719C278.682 162.719 274.932 159.75 274.932 152.062V136.094H270.307V127.969H274.932V120.125H286.026V127.969H292.12V136.094H286.026V150.562C286.026 153.5 287.339 154.594 290.057 154.594C290.932 154.594 291.495 154.531 292.12 154.438V162.312C290.901 162.531 289.245 162.719 286.932 162.719ZM311.342 162.719C301.217 162.719 295.78 158.25 295.03 151.625L294.999 151.344H305.749L305.811 151.594C306.342 153.906 308.092 155.25 311.342 155.25C314.28 155.25 316.061 154.188 316.061 152.438V152.406C316.061 150.875 314.967 150.031 311.936 149.406L305.936 148.219C299.28 146.938 295.811 143.469 295.811 138.281V138.25C295.811 131.469 301.624 127.25 310.936 127.25C320.78 127.25 325.999 132.281 326.092 138.375L326.124 138.625H315.999L315.967 138.375C315.717 136.375 313.999 134.719 310.936 134.719C308.217 134.719 306.467 135.844 306.467 137.625V137.656C306.467 139.125 307.499 140 310.717 140.656L316.717 141.844C323.936 143.281 327.061 146.094 327.061 151.188V151.219C327.061 158.25 320.686 162.719 311.342 162.719Z" fill="#FCFDFF"/>
<rect width="14" height="165" fill="white"/>
</svg>
